<svg width="37" height="37" fill="none" xmlns="http://www.w3.org/2000/svg"><path d="M37 18.5a18.43 18.43 0 01-3.134 10.27 1.445 1.445 0 11-2.403-1.607 15.547 15.547 0 002.646-8.663c0-8.607-7.002-15.61-15.609-15.61S2.89 9.894 2.89 18.5 9.894 34.11 18.5 34.11a15.58 15.58 0 008.075-2.248 1.445 1.445 0 111.497 2.472A18.472 18.472 0 0118.5 37a18.38 18.38 0 01-13.082-5.419A18.38 18.38 0 010 18.5 18.38 18.38 0 015.418 5.418 18.38 18.38 0 0118.5 0a18.38 18.38 0 0113.081 5.418A18.38 18.38 0 0137 18.5zm-24.498-1.445a3.617 3.617 0 01-3.613-3.614 3.617 3.617 0 013.613-3.613 3.617 3.617 0 013.613 3.613 3.617 3.617 0 01-3.613 3.614zm.723-3.614a.723.723 0 10-1.447.002.723.723 0 001.447-.002zm7.588 10.118a3.617 3.617 0 013.613-3.614 3.617 3.617 0 013.613 3.614 3.617 3.617 0 01-3.613 3.613 3.617 3.617 0 01-3.613-3.613zm2.89 0a.723.723 0 101.447-.002.723.723 0 00-1.447.002zm-9.662 3.439A1.445 1.445 0 0016 26.414l7.812-14.453a1.445 1.445 0 10-2.542-1.375L13.457 25.04c-.38.702-.118 1.58.584 1.959z" fill="url(#paint0_linear_192_5485)"/><defs><linearGradient id="paint0_linear_192_5485" x1="-52.456" y1="-17.242" x2="27.247" y2="66.655" gradientUnits="userSpaceOnUse"><stop stop-color="#015925"/><stop offset=".197" stop-color="#348127"/><stop offset=".335" stop-color="#4B9328"/><stop offset=".493" stop-color="#B8EA2C"/><stop offset=".67" stop-color="#509828"/><stop offset=".827" stop-color="#408A27"/><stop offset="1" stop-color="#015925"/></linearGradient></defs></svg>