<svg width="45" height="45" fill="none" xmlns="http://www.w3.org/2000/svg"><path d="M41.188 34.99l-.208-.138c2.467-3.69 3.77-7.96 3.77-12.352 0-5.944-2.314-11.53-6.517-15.733A22.103 22.103 0 0022.5.25 22.103 22.103 0 006.767 6.767L6.59 6.59C2.34 10.84 0 16.49 0 22.5s2.34 11.66 6.59 15.91l34.598-3.42zm0 0l-.208-.138c-.463.692-1.4.878-2.091.415l-.14.208.14-.208a1.508 1.508 0 01-.416-2.091c2.133-3.191 3.261-6.883 3.261-10.676 0-10.606-8.628-19.234-19.234-19.234-10.606 0-19.234 8.628-19.234 19.234 0 10.606 8.628 19.234 19.234 19.234 3.517 0 6.958-.957 9.95-2.77a1.508 1.508 0 111.563 2.58s0 0 0 0l.13.214 7.045-6.767zm-23.992-2.374h0a1.508 1.508 0 01-.61-2.044l-.22-.119.22.12 9.502-17.579h0a1.508 1.508 0 012.044-.61h0a1.508 1.508 0 01.61 2.044l-9.503 17.578a1.507 1.507 0 01-2.043.61zm-1.99-12.124a4.15 4.15 0 01-4.146-4.144 4.15 4.15 0 014.145-4.145 4.15 4.15 0 014.145 4.145 4.15 4.15 0 01-4.145 4.144zm1.128-4.144a1.13 1.13 0 00-2.258 0 1.13 1.13 0 002.258 0zm9.229 12.304a4.15 4.15 0 014.144-4.144 4.15 4.15 0 014.145 4.144 4.15 4.15 0 01-4.145 4.145 4.15 4.15 0 01-4.145-4.145zm3.015 0a1.13 1.13 0 002.258 0 1.13 1.13 0 00-2.258 0z" fill="url(#paint0_linear_123_6620)" stroke="#0E1C0C" stroke-width=".5"/><defs><linearGradient id="paint0_linear_123_6620" x1="-63.797" y1="-20.97" x2="33.138" y2="81.067" gradientUnits="userSpaceOnUse"><stop stop-color="#015925"/><stop offset=".197" stop-color="#348127"/><stop offset=".335" stop-color="#4B9328"/><stop offset=".493" stop-color="#B8EA2C"/><stop offset=".67" stop-color="#509828"/><stop offset=".827" stop-color="#408A27"/><stop offset="1" stop-color="#015925"/></linearGradient></defs></svg>