<svg width="37" height="37" fill="none" xmlns="http://www.w3.org/2000/svg"><path d="M36.906 31.705a1.446 1.446 0 00-2.83.589 1.51 1.51 0 01-.306 1.266 1.47 1.47 0 01-1.156.55H4.386c-.617 0-.99-.345-1.156-.55a1.51 1.51 0 01-.306-1.266c1.5-7.21 7.863-12.475 15.208-12.645a9.796 9.796 0 007.305-2.866v2.801a3.98 3.98 0 01-3.282 3.913 2.379 2.379 0 00-1.848-.878h-3.614a2.385 2.385 0 100 4.77h3.614a2.38 2.38 0 001.928-.983 6.882 6.882 0 005.422-3.863 16.094 16.094 0 014.068 4.163 1.444 1.444 0 102.401-1.61 18.993 18.993 0 00-5.798-5.57v-4.422h2.313c.383 0 .75-.153 1.022-.424l1.445-1.445a1.444 1.444 0 00.423-1.022V7.877c0-.383-.152-.75-.423-1.022L31.663 5.41a1.443 1.443 0 00-1.022-.424H27.75c-.222 0-.432.052-.62.142C25.46 2.075 22.217 0 18.5 0a9.834 9.834 0 00-8.55 4.986H6.504a1.444 1.444 0 00-1.022.424L4.037 6.855a1.444 1.444 0 00-.424 1.022v4.336c0 .383.152.75.424 1.022l1.445 1.445a1.444 1.444 0 001.022.424h3.707a9.907 9.907 0 002.41 2.595 18.779 18.779 0 00-6.057 3.329 18.857 18.857 0 00-6.47 10.677 4.39 4.39 0 00.893 3.679A4.363 4.363 0 004.386 37h28.228c1.324 0 2.563-.59 3.399-1.616a4.388 4.388 0 00.893-3.68zm-6.265-23.23v3.14l-.6.598h-1.713V8.527c0-.226-.053-.449-.156-.65h1.87l.599.599zM7.103 12.214l-.6-.599V8.476l.6-.6h1.764a9.835 9.835 0 00.098 4.337H7.103zm4.46-2.385A6.945 6.945 0 0118.5 2.891a6.945 6.945 0 016.938 6.937 6.946 6.946 0 01-6.774 6.936 1.433 1.433 0 00-.164-.01c-.113 0-.226.001-.338.003-3.67-.177-6.6-3.217-6.6-6.929z" fill="url(#paint0_linear_192_5492)"/><defs><linearGradient id="paint0_linear_192_5492" x1="-52.456" y1="-17.242" x2="27.247" y2="66.655" gradientUnits="userSpaceOnUse"><stop stop-color="#015925"/><stop offset=".197" stop-color="#348127"/><stop offset=".335" stop-color="#4B9328"/><stop offset=".493" stop-color="#B8EA2C"/><stop offset=".67" stop-color="#509828"/><stop offset=".827" stop-color="#408A27"/><stop offset="1" stop-color="#015925"/></linearGradient></defs></svg>