<svg width="39" height="44" fill="none" xmlns="http://www.w3.org/2000/svg"><path d="M29.278 16.14v.25h2.314a6.625 6.625 0 016.617 6.617v6.353a1.467 1.467 0 11-2.934 0v-6.353a3.688 3.688 0 00-3.683-3.684H6.868a3.688 3.688 0 00-3.684 3.684v14.079a3.688 3.688 0 003.684 3.684h24.724a3.688 3.688 0 003.683-3.684 1.467 1.467 0 012.934 0 6.625 6.625 0 01-6.617 6.617H6.868A6.625 6.625 0 01.25 37.087v-14.08a6.625 6.625 0 016.618-6.617h2.307v-6.305C9.175 4.667 13.679.25 19.227.25c5.547 0 10.051 4.417 10.051 9.834v6.055zm-3.184.25h.25v-6.306c0-3.812-3.2-6.9-7.117-6.9-3.918 0-7.118 3.088-7.118 6.9v6.305h13.985z" fill="url(#paint0_linear_123_6622)" stroke="#0F2F0E" stroke-width=".5"/><path d="M19.032 32.626h0l3.563-3.5s0 0 0 0a1.12 1.12 0 00.002-1.603 1.172 1.172 0 00-1.637-.002l-2.606 2.559-.14.138-.14-.138-1.25-1.227h0a1.171 1.171 0 00-1.636.002l3.844 3.77zm0 0a1.154 1.154 0 01-.817.332h0m.817-.332l-.818.332m0 0a1.17 1.17 0 01-.817-.332h0m.817.332l-.817-.333m0 0l-2.207-2.167h0m2.207 2.167l-2.207-2.167m0 0a1.12 1.12 0 01-.002-1.603l.002 1.603z" fill="url(#paint1_linear_123_6622)" stroke="#0F2F0E" stroke-width=".4"/><defs><linearGradient id="paint0_linear_123_6622" x1="-54.525" y1="-20.483" x2="39.961" y2="66.543" gradientUnits="userSpaceOnUse"><stop stop-color="#015925"/><stop offset=".197" stop-color="#348127"/><stop offset=".335" stop-color="#4B9328"/><stop offset=".493" stop-color="#B8EA2C"/><stop offset=".67" stop-color="#509828"/><stop offset=".827" stop-color="#408A27"/><stop offset="1" stop-color="#015925"/></linearGradient><linearGradient id="paint1_linear_123_6622" x1="2.626" y1="24.114" x2="15.072" y2="42.127" gradientUnits="userSpaceOnUse"><stop stop-color="#015925"/><stop offset=".197" stop-color="#348127"/><stop offset=".335" stop-color="#4B9328"/><stop offset=".493" stop-color="#B8EA2C"/><stop offset=".67" stop-color="#509828"/><stop offset=".827" stop-color="#408A27"/><stop offset="1" stop-color="#015925"/></linearGradient></defs></svg>