<svg width="45" height="45" fill="none" xmlns="http://www.w3.org/2000/svg"><path d="M41.738 39.215h0a2.138 2.138 0 01-.433 1.79h0c-.234.288-.764.78-1.64.78H5.336a2.086 2.086 0 01-1.64-.78s0 0 0 0l.233-.189 37.81-1.601zm0 0a1.458 1.458 0 112.854-.594 5.038 5.038 0 01-1.026 4.224h0a5.006 5.006 0 01-3.9 1.855H5.334a5.007 5.007 0 01-3.9-1.855A5.039 5.039 0 01.407 38.62l-.294-.061.294.06c1.04-5 3.799-9.55 7.766-12.814a22.543 22.543 0 017.27-3.995l.546-.18-.46-.345a11.749 11.749 0 01-2.858-3.078l-.089-.139H7.91h0a1.454 1.454 0 01-1.03-.427h0l-1.758-1.758h0a1.456 1.456 0 01-.427-1.03V9.58v0a1.456 1.456 0 01.427-1.03h0L6.88 6.791h0a1.456 1.456 0 011.03-.428h4.366l.086-.151C14.368 2.684 18.162.3 22.5.3c4.407 0 8.252 2.46 10.232 6.08l.136.25.256-.123c.191-.09.403-.143.626-.143h3.516a1.457 1.457 0 011.03.428h0l1.758 1.757h0c.274.274.427.644.427 1.031v5.274a1.456 1.456 0 01-.427 1.03h0l-1.758 1.758h0a1.456 1.456 0 01-1.03.427h-3.113v5.846l.143.088a22.8 22.8 0 016.96 6.687h0m.482 8.525l-.483-8.525m0 0a1.458 1.458 0 01-2.421 1.624l2.421-1.624zm-3.69-20.382v-.124l-.087-.088-.729-.728-.087-.088h-2.888l.222.436c.103.203.157.427.157.655 0 0 0 0 0 0v4.782h2.509l.088-.087.728-.729.088-.087v-3.942zM8.427 15.066l.088.087h2.773l-.093-.372a11.65 11.65 0 01-.347-2.828v0c0-.777.077-1.552.23-2.314l.073-.359H8.514l-.088.088-.728.728-.088.088v4.066l.088.088.728.728zm14.24 5.62l.02.003h.02c4.724-.111 8.532-3.987 8.532-8.736 0-4.818-3.92-8.737-8.738-8.737s-8.738 3.919-8.738 8.737c0 4.676 3.691 8.504 8.312 8.727h.02c.137-.002.271-.004.406-.004.053 0 .108.004.165.01z" fill="url(#paint0_linear_123_6628)" stroke="#0F210F" stroke-width=".6"/><defs><linearGradient id="paint0_linear_123_6628" x1="-63.797" y1="-20.97" x2="33.138" y2="81.067" gradientUnits="userSpaceOnUse"><stop stop-color="#015925"/><stop offset=".197" stop-color="#348127"/><stop offset=".335" stop-color="#4B9328"/><stop offset=".493" stop-color="#B8EA2C"/><stop offset=".67" stop-color="#509828"/><stop offset=".827" stop-color="#408A27"/><stop offset="1" stop-color="#015925"/></linearGradient></defs></svg>