<svg width="49" height="23" fill="none" xmlns="http://www.w3.org/2000/svg"><path d="M33.89 0h-8.216a2.21 2.21 0 00-1.556.64 2.171 2.171 0 00-.645 1.543v18.633c0 .579.232 1.134.645 1.544a2.21 2.21 0 003.112 0c.412-.41.644-.965.644-1.544v-4.804h6.015c4.45 0 8.07-3.591 8.07-8.006S38.338 0 33.888 0zm0 11.645h-6.016V4.367h6.015c2.023 0 3.668 1.632 3.668 3.64 0 2.006-1.645 3.638-3.668 3.638zM13.65 1.417a2.186 2.186 0 00-.807-1.028A2.213 2.213 0 0011.59 0H9.242c-.448 0-.885.136-1.253.389-.368.253-.65.612-.807 1.028L.14 20.049a2.168 2.168 0 00.057 1.67c.242.528.684.938 1.23 1.141a2.216 2.216 0 001.684-.056 2.19 2.19 0 001.15-1.221l1.225-3.242h9.86l1.225 3.241c.157.417.439.776.807 1.029a2.213 2.213 0 003.062-.551 2.173 2.173 0 00.252-2.01L13.65 1.416zM7.136 13.974l3.28-8.677 3.28 8.677h-6.56zM46.8 0a2.21 2.21 0 00-1.556.64 2.174 2.174 0 00-.644 1.543v18.633c0 .579.232 1.134.644 1.544a2.21 2.21 0 003.112 0c.413-.41.645-.965.645-1.544V2.183c0-.579-.232-1.134-.645-1.543A2.21 2.21 0 0046.8 0z" fill="url(#paint0_linear_123_6482)"/><defs><linearGradient id="paint0_linear_123_6482" x1="-115.5" y1="-40" x2="-77.875" y2="94.753" gradientUnits="userSpaceOnUse"><stop stop-color="#015925"/><stop offset=".197" stop-color="#348127"/><stop offset=".335" stop-color="#4B9328"/><stop offset=".493" stop-color="#B8EA2C"/><stop offset=".67" stop-color="#509828"/><stop offset=".827" stop-color="#408A27"/><stop offset="1" stop-color="#015925"/></linearGradient></defs></svg>