<svg width="31" height="38" fill="none" xmlns="http://www.w3.org/2000/svg"><path d="M15.266 18.305c2.458 0 4.588-.902 6.327-2.682 1.74-1.779 2.622-3.956 2.622-6.47 0-2.515-.882-4.692-2.622-6.472C19.853.9 17.724 0 15.266 0c-2.46 0-4.588.902-6.328 2.681-1.74 1.78-2.622 3.957-2.622 6.471 0 2.515.882 4.692 2.622 6.472 1.74 1.778 3.87 2.68 6.328 2.68zM30.925 29.22c-.05-.74-.152-1.548-.301-2.401a19.159 19.159 0 00-.578-2.414 12.063 12.063 0 00-.97-2.252 8.48 8.48 0 00-1.463-1.95 6.436 6.436 0 00-2.102-1.35c-.815-.33-1.718-.497-2.684-.497-.38 0-.746.159-1.454.63-.504.336-1.009.669-1.516 1-.486.317-1.146.614-1.96.883a7.629 7.629 0 01-2.398.396 7.637 7.637 0 01-2.398-.396c-.814-.269-1.473-.566-1.96-.883-.563-.369-1.073-.705-1.516-1-.707-.471-1.075-.63-1.454-.63-.966 0-1.869.167-2.683.497a6.429 6.429 0 00-2.102 1.35 8.478 8.478 0 00-1.463 1.95c-.403.727-.73 1.484-.97 2.252a19.306 19.306 0 00-.578 2.414c-.15.852-.25 1.66-.3 2.402-.05.747-.075 1.495-.075 2.244 0 1.983.617 3.59 1.832 4.773C3.033 37.408 4.622 38 6.554 38h17.892c1.932 0 3.52-.593 4.721-1.761C30.383 35.055 31 33.449 31 31.464c0-.765-.026-1.52-.075-2.244z" fill="url(#paint0_linear_123_6480)"/><defs><linearGradient id="paint0_linear_123_6480" x1="-66" y1="-36.5" x2="49.122" y2="70.607" gradientUnits="userSpaceOnUse"><stop stop-color="#015925"/><stop offset=".197" stop-color="#348127"/><stop offset=".335" stop-color="#4B9328"/><stop offset=".493" stop-color="#B8EA2C"/><stop offset=".67" stop-color="#509828"/><stop offset=".827" stop-color="#408A27"/><stop offset="1" stop-color="#015925"/></linearGradient></defs></svg>