<svg width="115" height="25" fill="none" xmlns="http://www.w3.org/2000/svg"><g clip-path="url(#clip0_181_6130)"><path d="M51.842 0h3.62l6.295 15.168h.232L68.284 0h3.62v19.512h-2.838V5.392h-.184l-5.831 14.092h-2.356L54.864 5.383h-.184v14.13h-2.838V0zm26.853 19.836c-.94 0-1.79-.171-2.55-.514a4.278 4.278 0 01-1.805-1.515c-.438-.66-.656-1.47-.656-2.43 0-.825.16-1.505.482-2.039a3.54 3.54 0 011.304-1.267 6.86 6.86 0 011.834-.705 18.46 18.46 0 012.066-.362l2.163-.247c.553-.07.956-.181 1.207-.334.25-.152.376-.4.376-.743v-.067c0-.832-.238-1.477-.714-1.934-.47-.457-1.171-.686-2.105-.686-.972 0-1.738.213-2.298.638-.553.42-.936.887-1.149 1.401l-2.713-.61c.322-.889.792-1.607 1.41-2.153a5.738 5.738 0 012.153-1.2 8.509 8.509 0 012.559-.381c.592 0 1.22.07 1.882.21.67.132 1.294.38 1.873.742.586.362 1.066.88 1.439 1.553.373.667.56 1.534.56 2.601v9.718h-2.82v-2h-.115c-.187.368-.467.73-.84 1.086-.373.355-.853.65-1.439.886-.586.235-1.287.352-2.105.352zm.627-2.287c.798 0 1.48-.155 2.047-.466.573-.311 1.007-.718 1.303-1.22a3.132 3.132 0 00.454-1.629v-1.886c-.103.101-.303.196-.599.285-.29.083-.62.156-.994.22-.373.057-.737.11-1.091.162-.354.044-.65.082-.888.114a7.24 7.24 0 00-1.535.352c-.457.165-.824.404-1.101.715-.27.305-.406.711-.406 1.22 0 .704.264 1.238.792 1.6.528.356 1.2.534 2.018.534zm11.791-6.726v8.69h-2.886V4.877h2.77V7.26h.184a4.199 4.199 0 011.603-1.867c.733-.47 1.657-.705 2.77-.705 1.011 0 1.896.21 2.656.628.76.413 1.348 1.03 1.766 1.849.419.819.628 1.832.628 3.039v9.308h-2.887v-8.965c0-1.06-.28-1.89-.84-2.487-.56-.603-1.329-.905-2.307-.905-.67 0-1.265.143-1.786.429a3.102 3.102 0 00-1.227 1.257c-.296.547-.444 1.207-.444 1.982zM104.138 25a6.1 6.1 0 01-1.178-.105c-.354-.063-.618-.133-.791-.21l.695-2.334c.528.14.997.2 1.409.181a1.697 1.697 0 001.091-.457c.322-.286.605-.753.85-1.4l.357-.972-5.426-14.825h3.09l3.755 11.357h.155l3.756-11.357H115l-6.112 16.587c-.283.762-.643 1.407-1.081 1.934a4.193 4.193 0 01-1.564 1.2c-.605.268-1.307.401-2.105.401z" fill="#2AB938"/><path d="M0 19.512V0h12.262v2.534H2.983V8.48h8.4v2.525h-8.4v8.508H0zm18.33.324c-.94 0-1.79-.171-2.549-.514a4.278 4.278 0 01-1.805-1.515c-.438-.66-.657-1.47-.657-2.43 0-.825.161-1.505.483-2.039a3.54 3.54 0 011.303-1.267 6.86 6.86 0 011.835-.705 18.23 18.23 0 012.066-.362l2.162-.247c.554-.07.956-.181 1.207-.334.251-.152.377-.4.377-.743v-.067c0-.832-.238-1.477-.715-1.934-.47-.457-1.171-.686-2.104-.686-.972 0-1.738.213-2.298.638-.554.42-.937.887-1.15 1.401l-2.712-.61c.322-.889.792-1.607 1.41-2.153a5.737 5.737 0 012.152-1.2 8.508 8.508 0 012.559-.381c.592 0 1.22.07 1.883.21.67.132 1.293.38 1.873.742.585.362 1.065.88 1.438 1.553.374.667.56 1.534.56 2.601v9.718H22.83v-2h-.116c-.187.368-.466.73-.84 1.086-.373.355-.853.65-1.438.886-.586.235-1.288.352-2.105.352zm.628-2.287c.798 0 1.48-.155 2.046-.466.573-.311 1.008-.718 1.304-1.22a3.132 3.132 0 00.454-1.629v-1.886c-.104.101-.303.196-.6.285a9.41 9.41 0 01-.994.22c-.373.057-.737.11-1.09.162-.355.044-.65.082-.889.114a7.24 7.24 0 00-1.535.352c-.457.165-.824.404-1.1.715-.27.305-.406.711-.406 1.22 0 .704.264 1.238.792 1.6.527.356 1.2.534 2.017.534zM38.975 8.45l-2.617.458a3.047 3.047 0 00-.521-.943 2.575 2.575 0 00-.946-.734c-.4-.19-.898-.285-1.497-.285-.817 0-1.5.18-2.046.543-.548.355-.821.816-.821 1.381 0 .49.183.883.55 1.181.367.299.96.543 1.777.734l2.355.534c1.365.31 2.382.79 3.051 1.438.67.648 1.004 1.49 1.004 2.525 0 .877-.257 1.658-.772 2.344-.508.68-1.22 1.213-2.134 1.6-.907.388-1.96.582-3.157.582-1.66 0-3.015-.35-4.064-1.049-1.05-.704-1.693-1.705-1.931-3l2.79-.42c.174.718.53 1.261 1.072 1.63.54.361 1.245.542 2.114.542.946 0 1.702-.193 2.269-.58.566-.395.85-.874.85-1.44 0-.457-.174-.841-.522-1.152-.341-.311-.866-.546-1.574-.705l-2.51-.543c-1.384-.311-2.407-.807-3.07-1.487-.657-.68-.985-1.54-.985-2.582 0-.863.245-1.62.734-2.267.489-.648 1.165-1.153 2.027-1.515.863-.368 1.85-.553 2.964-.553 1.603 0 2.865.343 3.785 1.03.92.68 1.529 1.59 1.825 2.734zm8.755-3.572v2.287h-8.1V4.878h8.1zm-5.928-3.506h2.886v13.843c0 .553.084.969.252 1.248.167.273.383.46.646.563.27.095.564.142.879.142.232 0 .434-.015.608-.047s.31-.057.406-.076L48 19.398a4.907 4.907 0 01-.714.19 5.72 5.72 0 01-1.159.115 5.141 5.141 0 01-2.124-.4 3.634 3.634 0 01-1.593-1.296c-.406-.585-.608-1.318-.608-2.201V1.372z" fill="#fff"/></g><defs><clipPath id="clip0_181_6130"><path fill="#fff" d="M0 0h115v25H0z"/></clipPath></defs></svg>