<?xml version="1.0" encoding="utf-8"?><svg viewBox="0 0 37 37" xmlns="http://www.w3.org/2000/svg" xmlns:xlink="http://www.w3.org/1999/xlink"><style>:root>svg{display:none}:root>svg:target{display:block}</style><svg fill="none" viewBox="0 0 37 37" id="icon-circle-tg" xmlns="http://www.w3.org/2000/svg"><path d="M18.5 37C28.72 37 37 28.72 37 18.5S28.72 0 18.5 0 0 8.28 0 18.5 8.28 37 18.5 37zM8.465 18.1l17.837-6.878c.828-.3 1.55.202 1.283 1.453h.001L24.55 26.982c-.225 1.015-.827 1.261-1.67.783l-2.132-1.57a3.67 3.67 0 00-4.724.31c-.411.412-.899-.037-.858-.616l.164-2.349a3.197 3.197 0 011.046-2.15l7.615-6.88c.373-.328-.083-.513-.575-.186l-6.545 4.12a10.371 10.371 0 01-8.614 1.124c-.992-.314-1.013-.99.21-1.469z" fill="currentColor"/></svg><svg fill="none" viewBox="0 0 32 32" id="icon-done" xmlns="http://www.w3.org/2000/svg"><path d="M30.08 13.78l-2.22-2.22a1.12 1.12 0 01-.34-.8V7.6a3.124 3.124 0 00-3.12-3.12h-3.16a1.122 1.122 0 01-.8-.34l-2.22-2.22a3.15 3.15 0 00-4.44 0l-2.22 2.22a1.122 1.122 0 01-.8.34H7.6A3.124 3.124 0 004.48 7.6v3.16a1.12 1.12 0 01-.34.8l-2.22 2.22a3.15 3.15 0 000 4.44l2.22 2.22a1.12 1.12 0 01.34.8v3.16a3.124 3.124 0 003.12 3.12h3.16a1.122 1.122 0 01.8.34l2.22 2.22a3.14 3.14 0 004.44 0l2.22-2.22a1.123 1.123 0 01.8-.34h3.16a3.124 3.124 0 003.12-3.12v-3.16a1.12 1.12 0 01.34-.8l2.22-2.22a3.15 3.15 0 000-4.44zm-9.38.26l-5.32 5.34a1.04 1.04 0 01-1.42 0L11.3 16.7a.99.99 0 011.4-1.4l1.96 1.96 4.64-4.64a1.002 1.002 0 011.7.71.99.99 0 01-.3.71z" fill="url(#bpaint0_linear_123_6589)"/><defs><linearGradient id="bpaint0_linear_123_6589" x1="-41.514" y1="-12.973" x2="23.099" y2="55.031" gradientUnits="userSpaceOnUse"><stop stop-color="#015925"/><stop offset=".197" stop-color="#348127"/><stop offset=".335" stop-color="#4B9328"/><stop offset=".493" stop-color="#B8EA2C"/><stop offset=".67" stop-color="#509828"/><stop offset=".827" stop-color="#408A27"/><stop offset="1" stop-color="#015925"/></linearGradient></defs></svg><svg fill="none" viewBox="0 0 33 33" id="icon-done-salad" xmlns="http://www.w3.org/2000/svg"><path d="M31.993 14.055l-2.443-2.442a1.233 1.233 0 01-.374-.88V7.256a3.437 3.437 0 00-3.433-3.433h-3.477a1.234 1.234 0 01-.88-.374l-2.443-2.442a3.466 3.466 0 00-4.886 0l-2.443 2.442a1.235 1.235 0 01-.88.374H7.257a3.438 3.438 0 00-3.433 3.433v3.477a1.232 1.232 0 01-.374.88l-2.443 2.442a3.465 3.465 0 000 4.885l2.443 2.443a1.233 1.233 0 01.374.88v3.476a3.437 3.437 0 003.433 3.433h3.477a1.236 1.236 0 01.88.374l2.443 2.442a3.455 3.455 0 004.886 0l2.442-2.442a1.235 1.235 0 01.88-.374h3.478a3.438 3.438 0 003.433-3.433v-3.476a1.232 1.232 0 01.374-.88l2.443-2.443a3.465 3.465 0 000-4.885zm-10.321.286l-5.854 5.875a1.145 1.145 0 01-1.563 0l-2.927-2.948a1.089 1.089 0 011.54-1.54l2.157 2.156 5.106-5.105a1.103 1.103 0 011.87.781 1.089 1.089 0 01-.33.781z" fill="url(#cpaint0_linear_125_6691)"/><defs><linearGradient id="cpaint0_linear_125_6691" x1="-82.5" y1="112.026" x2="120.358" y2="69.972" gradientUnits="userSpaceOnUse"><stop offset=".493" stop-color="#B8EA2C"/><stop offset=".67" stop-color="#509828"/><stop offset=".827" stop-color="#408A27"/><stop offset="1" stop-color="#015925"/></linearGradient></defs></svg><svg fill="none" viewBox="0 0 27 27" id="icon-dot" xmlns="http://www.w3.org/2000/svg"><circle cx="13.5" cy="13.5" r="9.5" transform="rotate(90 13.5 13.5)" fill="url(#dpaint0_linear_1205_5643)"/><circle cx="13.5" cy="13.5" r="13" stroke="url(#dpaint1_linear_1205_5643)"/><defs><linearGradient id="dpaint0_linear_1205_5643" x1="-22.848" y1="-21.729" x2="7.199" y2="61.518" gradientUnits="userSpaceOnUse"><stop offset=".493" stop-color="#B8EA2C"/><stop offset=".67" stop-color="#509828"/><stop offset=".827" stop-color="#408A27"/><stop offset="1" stop-color="#015925"/></linearGradient><linearGradient id="dpaint1_linear_1205_5643" x1="-38.279" y1="-12.582" x2="19.883" y2="48.64" gradientUnits="userSpaceOnUse"><stop stop-color="#015925"/><stop offset=".197" stop-color="#348127"/><stop offset=".335" stop-color="#4B9328"/><stop offset=".493" stop-color="#B8EA2C"/><stop offset=".67" stop-color="#509828"/><stop offset=".827" stop-color="#408A27"/><stop offset="1" stop-color="#015925"/></linearGradient></defs></svg></svg>